<?xml version="1.0" encoding="iso-8859-1"?>
<!-- Generator: Adobe Illustrator 19.0.0, SVG Export Plug-In . SVG Version: 6.00 Build 0)  -->
<svg version="1.1" id="Layer_1" xmlns="http://www.w3.org/2000/svg" xmlns:xlink="http://www.w3.org/1999/xlink" x="0px" y="0px"
	 viewBox="0 0 512 512" style="enable-background:new 0 0 512 512;" xml:space="preserve">
<g>
	<g>
		<path d="M365.226,266.24l-13.652-11.947c-11.947-11.947-32.426-13.653-47.787-5.12V148.48c0-20.48-17.067-37.547-39.253-37.547
			h-20.48c-20.48,0-39.254,17.067-39.254,37.547v100.694c-13.653-10.24-35.84-8.534-47.787,3.413L143.36,266.24
			c-6.827,6.827-10.24,17.067-10.24,27.307c0,10.24,3.413,18.774,10.24,25.6l83.626,83.626c6.827,6.827,17.067,10.24,27.307,10.24
			s18.774-3.413,27.307-10.24l83.626-83.626C380.585,303.788,380.585,279.894,365.226,266.24z M343.04,298.667l-83.627,83.626
			L257.706,384c0,0-1.707,0-1.707-1.707l-83.626-83.626c-1.707-1.707-1.707-3.413,0-5.12l13.653-13.653l1.707-1.707h1.707
			l23.893,25.6c5.12,5.12,11.946,6.827,18.774,3.413c6.827-3.413,10.24-8.534,10.24-15.36v-143.36c0-1.707,1.707-3.413,5.12-3.413
			h20.48c1.707,0,5.12,1.707,5.12,3.413v141.654c0,6.827,3.413,13.653,10.24,15.36s13.653,1.707,18.774-3.413l23.893-23.893
			c1.707-1.707,3.413-1.707,5.12,0l13.653,13.653C343.04,295.253,343.04,296.96,343.04,298.667z"/>
	</g>
</g>
<g>
	<g>
		<path d="M256,0C114.346,0,0,114.346,0,256s114.346,256,256,256s256-114.347,256-256S397.653,0,256,0z M256,477.867
			C133.12,477.867,34.133,378.88,34.133,256S133.12,34.133,256,34.133S477.867,133.12,477.867,256S378.88,477.867,256,477.867z"/>
	</g>
</g>
<g>
</g>
<g>
</g>
<g>
</g>
<g>
</g>
<g>
</g>
<g>
</g>
<g>
</g>
<g>
</g>
<g>
</g>
<g>
</g>
<g>
</g>
<g>
</g>
<g>
</g>
<g>
</g>
<g>
</g>
</svg>
