<svg height="512" viewBox="0 0 52 58" width="512" xmlns="http://www.w3.org/2000/svg"><g id="004---Male-User" fill="none" transform="translate(0 -1)"><path id="Shape" d="m18 37.32v6.68c-7.67 7.38-6.77 3.7-13.18 7.43-.82.46-4.65 2.57-4.76 2.57 10.57 6.62 41.33 6.59 51.86 0 .1 0-.31-.05-4.75-2.59-6.4-3.71-5.52-.05-13.17-7.41v-6.68z" fill="#fdd7ad"/><path id="Shape" d="m34 36v4c-2.9 2.94-3.07 5.72-6.3 5.72h-3.4c-3.23 0-3.4-2.78-6.3-5.72v-4z" fill="#f9c795"/><path id="Shape" d="m51.93 54c-4.7 2.94-13.08 4.24-18.61 4.69 5.18-1.61 6.37-8 6.61-10.08.6928161.3369715 1.4252155.5855841 2.18.74 3.17.58 5.79 2.65 9.82 4.65z" fill="#f29c1f"/><path id="Shape" d="m18.68 58.71c-5.53-.45-13.91-1.71-18.61-4.71.88-.44 3.54-1.9 4.75-2.59 4.39-2.56 4.54-1.52 7.25-2.8.24 2.06 1.43 8.49 6.61 10.1z" fill="#f29c1f"/><path id="Shape" d="m14 22s-3-3-4-12c-.19157722-2.66322587-.19157722-5.33677413 0-8 5.6394864-.69614498 11.3177896-1.03016282 17-1 10 0 11 5 11 7 0 0 4 1 4 5s0 8-3 9z" fill="#805333"/><path id="Shape" d="m15.6 22s-2.6-3-3.47-12c-.1642582-2.66413722-.1642582-5.33586278 0-8 4.8787173-.69521089 9.8020863-1.02945183 14.73-1 8.66 0 9.52 5 9.52 7 2.1293969.72176469 3.5349109 2.7528543 3.46 5 0 4 0 8-2.59 9z" fill="#a56a43"/><path id="Shape" d="m37.87 21.71c.469507-.491412 1.1315967-.7511267 1.81-.71 1.77-.27 1.53 3.3 1.18 5.06-.2117094 2.1960681-1.6489904 4.0827417-3.71 4.87h-22.3c-2.0580884-.7911584-3.4937549-2.6757125-3.71-4.87-.35-1.75-.59-5.33 1.18-5.06.6846461-.0695216 1.3601786.1991985 1.81.72z" fill="#f9c795"/><path id="Shape" d="m14 18.71c.26-3 1.13-7.71 3.92-7.71 4 0 4 1 8.08 1s4-1 8.08-1c2.78 0 3.65 4.73 3.92 7.68 0 5.44-.94 6.87-.94 9.35 0 3.09.85 5.73-2.55 8.81s-3.4 6.16-6.81 6.16h-3.4c-3.41 0-3.41-3.08-6.81-6.17s-2.55-5.72-2.55-8.83c0-2.38-.94-3.92-.94-9.32z" fill="#fdd7ad"/></g></svg>